Coordinates
version=1
nRows=22
nColumns=24
inDegrees=yes

Units are S.I. units (second, meters, Newtons, ...)
Angles are in degrees.

endheader
time	pelvis_tilt	pelvis_list	pelvis_rotation	pelvis_tx	pelvis_ty	pelvis_tz	hip_flexion_r	hip_adduction_r	hip_rotation_r	knee_angle_r	ankle_angle_r	subtalar_angle_r	mtp_angle_r	hip_flexion_l	hip_adduction_l	hip_rotation_l	knee_angle_l	ankle_angle_l	subtalar_angle_l	mtp_angle_l	lumbar_extension	lumbar_bending	lumbar_rotation
      5.70000000	     -5.89266156	     13.01923066	     -6.32769423	     -0.86907385	     -0.03114665	     -0.29475725	     11.73443444	    -18.98532371	     -3.56084304	    -61.14332625	    -30.06974621	     -9.23849900	     16.72156072	     23.08270635	     15.18074474	    -11.54406437	    -18.68560172	      1.70141953	    -10.67853992	      6.15072231	      1.64558926	    -14.44926571	      5.33649202
      5.70500000	     -5.81252186	     12.99470623	     -6.28789517	     -0.86247067	     -0.02992770	     -0.29508801	     12.60296722	    -18.92298917	     -3.32635675	    -62.07902661	    -28.76502616	    -10.46167832	     15.25604742	     22.23804085	     15.26555928	    -11.71899836	    -18.11865661	      1.85920416	    -10.18005432	      7.73397581	      1.50517256	    -14.40590135	      5.06989193
      5.71000000	     -5.73456088	     12.91754288	     -6.25624980	     -0.85591038	     -0.02864729	     -0.29546723	     13.45877056	    -18.79080907	     -3.10003159	    -62.91347859	    -27.35202791	    -11.49126072	     13.98048417	     21.39159569	     15.31137284	    -11.83779669	    -17.54320555	      1.93900872	     -9.84377746	      9.19591442	      1.36295317	    -14.29396637	      4.86683962
      5.71500000	     -5.68137089	     12.81237765	     -6.17895804	     -0.84938806	     -0.02736138	     -0.29609048	     14.30079746	    -18.63621403	     -2.87563425	    -63.59887593	    -26.22606662	    -12.38740898	     14.14775333	     20.57763467	     15.38880787	    -11.67253405	    -17.02432677	      2.18016366	     -9.65258163	      9.32769839	      1.22768219	    -14.12124783	      4.63629725
      5.72000000	     -5.60113600	     12.63029219	     -6.21241637	     -0.84282553	     -0.02595114	     -0.29624589	     15.14392232	    -18.30424651	     -2.59457653	    -64.26414549	    -24.66500353	    -13.08696284	     12.41243841	     19.72276177	     15.28504661	    -11.87615805	    -16.44093924	      2.14790642	     -9.32238239	     11.31134296	      1.10805758	    -13.91170666	      4.50880807
      5.72500000	     -5.55235100	     12.41652776	     -6.15928097	     -0.83625809	     -0.02457801	     -0.29672836	     15.94484779	    -17.95795198	     -2.32450415	    -64.77124163	    -23.48095092	    -13.58284451	     12.61770236	     18.91321158	     15.22547433	    -11.71008881	    -15.96346290	      2.41217680	     -9.07062027	     11.45247219	      0.99688076	    -13.63639885	      4.33418646
      5.73000000	     -5.48527568	     12.18822767	     -6.15042879	     -0.82971160	     -0.02322857	     -0.29716116	     16.74021379	    -17.57136517	     -2.02676744	    -65.22309713	    -22.32055545	    -13.99042658	     12.71525087	     18.10865804	     15.13356515	    -11.64513521	    -15.51454027	      2.68846781	     -8.83769199	     11.67296170	      0.87923098	    -13.34042825	      4.17780186
      5.73500000	     -5.44172492	     11.94327381	     -6.12746326	     -0.82317780	     -0.02187928	     -0.29752909	     17.54206279	    -17.13674501	     -1.74284626	    -65.59708667	    -21.28607119	    -14.40612848	     12.83034241	     17.32982215	     15.02419297	    -11.42686991	    -15.07982074	      2.88917990	     -8.67868797	     11.79495419	      0.78896082	    -13.04038208	      4.04227430
      5.74000000	     -5.37577068	     11.68993847	     -6.12064853	     -0.81662406	     -0.02059037	     -0.29794881	     18.31277720	    -16.69501885	     -1.46077876	    -65.92169640	    -20.20027085	    -14.62996916	     12.86166939	     16.54379431	     14.90822503	    -11.28428336	    -14.66901623	      3.14331722	     -8.54687926	     11.92596686	      0.68527286	    -12.71616355	      3.90242573
      5.74500000	     -5.33457787	     11.41333779	     -6.11018966	     -0.81012391	     -0.01929459	     -0.29827208	     19.09046368	    -16.19210868	     -1.18086399	    -66.16339188	    -19.25285856	    -14.89999511	     12.93257551	     15.78843164	     14.75775308	    -11.01569956	    -14.27549808	      3.33110036	     -8.45924410	     11.94924840	      0.60576742	    -12.38551032	      3.80561949
      5.75000000	     -5.28172192	     11.12547693	     -6.10572388	     -0.80362828	     -0.01804117	     -0.29863702	     19.83884810	    -15.68038163	     -0.91869564	    -66.34085915	    -18.28968398	    -15.05181876	     12.97093643	     15.02790029	     14.59945741	    -10.76466793	    -13.89286437	      3.54386317	     -8.41043552	     11.90595424	      0.52008612	    -12.03418511	      3.70796821
      5.75500000	     -5.13093564	     10.89455710	     -6.10245485	     -0.79711951	     -0.01675944	     -0.29900950	     20.47441812	    -15.24696595	     -0.65050417	    -66.48889688	    -17.08480007	    -14.87922341	     12.54673535	     14.14873721	     14.52126698	    -10.47534681	    -13.47990588	      3.79605165	     -8.33429003	     11.49677284	      0.33664277	    -11.75568936	      3.54905438
      5.76000000	     -5.13862734	     10.57761871	     -6.10891113	     -0.79070908	     -0.01560404	     -0.29935417	     21.26331046	    -14.67208776	     -0.41694862	    -66.51145757	    -16.34594854	    -15.13952794	     12.58810293	     13.45333994	     14.31744130	    -10.18251334	    -13.08871584	      4.00104095	     -8.33704802	     11.40807383	      0.31416585	    -11.36558129	      3.49789948
      5.76500000	     -4.96180155	     10.29638320	     -6.08074386	     -0.78426555	     -0.01428866	     -0.29974637	     21.79649868	    -14.19761101	     -0.24188673	    -66.47818026	    -15.13792233	    -14.85231343	     12.11120569	     12.52681499	     14.19679674	     -9.83256100	    -12.65394932	      4.24903097	     -8.32883930	     10.60844736	      0.09529373	    -11.04583314	      3.35022482
      5.77000000	     -4.86555356	      9.98431847	     -6.07726582	     -0.77797642	     -0.01308996	     -0.30009861	     22.43405933	    -13.65607316	     -0.09700545	    -66.39238782	    -14.03790065	    -14.79195033	     11.06726954	     11.70959571	     14.02248148	     -9.45792115	    -12.27032913	      4.70129065	     -8.26624845	      9.11323493	     -0.05349158	    -10.68019066	      3.26451208
      5.77500000	     -4.92764951	      9.67331807	     -6.07378829	     -0.77172043	     -0.01204013	     -0.30037925	     23.22413744	    -13.07477633	      0.08399639	    -66.17806801	    -13.35009200	    -14.91901129	     11.18655792	     11.05053543	     13.80148111	     -9.25022431	    -11.79724730	      4.82963466	     -8.22432014	      9.05159895	     -0.02462231	    -10.30853034	      3.21033102
      5.78000000	     -4.83315487	      9.37282517	     -6.05164757	     -0.76548488	     -0.01088656	     -0.30073579	     23.79040961	    -12.56549717	      0.21579292	    -65.87957485	    -12.38630573	    -14.66338591	     11.31555610	     10.19256474	     13.62655289	     -9.01910052	    -11.26845958	      4.96770253	     -8.19747091	      8.76661020	     -0.17328552	     -9.96224893	      3.12544509
      5.78500000	     -4.75616657	      9.05269625	     -6.03629539	     -0.75934753	     -0.00974805	     -0.30102104	     24.35317687	    -12.01976168	      0.33115275	    -65.48484480	    -11.53037800	    -14.48963942	     11.42801935	      9.34181686	     13.41680529	     -8.75456366	    -10.71169419	      5.08289088	     -8.15862042	      8.43243200	     -0.31404352	     -9.60452761	      3.03718277
      5.79000000	     -4.71518484	      8.73070851	     -6.00771427	     -0.75324665	     -0.00870142	     -0.30132814	     24.93073994	    -11.48526519	      0.40515637	    -65.01030726	    -10.70823430	    -14.29285169	     11.59573847	      8.52265010	     13.19893129	     -8.52107630	    -10.13116787	      5.19976983	     -8.09813540	      8.14952060	     -0.42008710	     -9.23796114	      2.95158629
      5.79500000	     -4.68250779	      8.39938149	     -5.97646533	     -0.74721881	     -0.00770825	     -0.30161491	     25.49002205	    -10.94653181	      0.45567941	    -64.45002701	     -9.90638213	    -14.05868753	     11.81312850	      7.70938426	     12.96287176	     -8.29324980	     -9.53414528	      5.29757645	     -8.02501240	      7.90722872	     -0.52612003	     -8.86778000	      2.85316170
      5.80000000	     -4.65940210	      8.06105556	     -5.93106469	     -0.74123157	     -0.00677571	     -0.30192024	     26.02558019	    -10.41500144	      0.47225772	    -63.80229530	     -9.12901737	    -13.79468576	     12.06846830	      6.90372627	     12.71593357	     -8.07445067	     -8.92464512	      5.38166993	     -7.94474836	      7.70300886	     -0.62968180	     -8.48901566	      2.73859774
      5.80500000	     -4.66619680	      7.71686749	     -5.87411496	     -0.73529389	     -0.00593687	     -0.30220197	     26.56433828	     -9.88534637	      0.45434005	    -63.07340140	     -8.37630895	    -13.52507042	     12.33624583	      6.13783720	     12.45083982	     -7.86015047	     -8.32169329	      5.45383141	     -7.85178812	      7.56161533	     -0.70792791	     -8.10573819	      2.63311529
